# xmcd
#
# Track frame offsets: 
#        150
#        14250
#        29641
#        45975
#        58355
#        80038
#        93669
#        108744
#        129894
#        148254
#        164887
#        182750
#        207620
#        224750
#        240185
#        266390
#
# Disc length: 3837 seconds
#
# Revision: 1
# Processed by: cddbd v1.5.2PL0 Copyright (c) Steve Scherf et al.
# Submitted via: ExactAudioCopy v0.99pb4
#
DISCID=f80efb10
DTITLE=Various Artist - Ultimate Grammy Collection - Classic Pop
DYEAR=2007
DGENRE=Pop
TTITLE0=Petula Clark - Downtown
TTITLE1=The Mamas and The Papas - Monday, Monday
TTITLE2=Jose Feliciano - Light My Fire
TTITLE3=Harry Nilsson - Everybody's Talkin'
TTITLE4=Fifth Dimension - Aquarius - Let the Sun Shine In (The Flesh F
TTITLE4=ailures)
TTITLE5=Dionne Warwick - I'll Never Fall in Love Again
TTITLE6=Captian and Tennille - Love Will Keep Us Together
TTITLE7=Janis Ian - At Seventeen
TTITLE8=Bee Gees - How Deep Is Your Love
TTITLE9=Doobie Brothers - What a Fool Believes
TTITLE10=Kenny Loggins - This Is It
TTITLE11=Toto - Rosanna
TTITLE12=Tina Turner - What's Love Got to Do With It
TTITLE13=Phil Collins - Against All Odds (Take a Look at Me Now)
TTITLE14=Steve Winwood - Higher Love
TTITLE15=Bill Medley and Jennifer Warnes - (I've Had) The Time of My Lif
TTITLE15=e
EXTD=
EXTT0=
EXTT1=
EXTT2=
EXTT3=
EXTT4=
EXTT5=
EXTT6=
EXTT7=
EXTT8=
EXTT9=
EXTT10=
EXTT11=
EXTT12=
EXTT13=
EXTT14=
EXTT15=
PLAYORDER=
